<svg xmlns="http://www.w3.org/2000/svg" viewBox="0 0 179.65 141.33"><defs><style>.cls-1{fill:#0a6deb;}</style></defs><g id="Capa_2" data-name="Capa 2"><g id="Capa_1-2" data-name="Capa 1"><path class="cls-1" d="M77.59,63.27v78.06H0Q.06,91.2.13,41.07A51.53,51.53,0,0,1,20.68,9.15,51.53,51.53,0,0,1,57.79.59q.09,6.62.23,13.28.15,7.26.33,14.44a19.41,19.41,0,0,0-9.88,1.87C39,34.88,34.05,48.1,36.12,63.27c7.51-.34,15.36-.51,23.53-.46C65.82,62.84,71.81,63,77.59,63.27Z"/><path class="cls-1 " d="M179.65,63.27v78.06H102.06q.06-50.13.13-100.26A50.48,50.48,0,0,1,159.84.59q.1,6.62.24,13.28.15,7.26.33,14.44a19.48,19.48,0,0,0-9.89,1.87c-9.43,4.7-14.41,17.92-12.35,33.09,7.51-.34,15.37-.51,23.54-.46C167.88,62.84,173.87,63,179.65,63.27Z"/></g></g></svg>